<svg width="44" height="45" viewBox="0 0 44 45" fill="none" xmlns="http://www.w3.org/2000/svg">
<g clip-path="url(#clip0_2101_64)">
<path d="M10.0839 31.9744C13.1215 31.9744 15.5839 29.5119 15.5839 26.4744C15.5839 23.4368 13.1215 20.9744 10.0839 20.9744C7.04636 20.9744 4.58392 23.4368 4.58392 26.4744C4.58392 29.5119 7.04636 31.9744 10.0839 31.9744Z" fill="#E668B3"/>
<path d="M15.125 35.6423H5.04109C3.70394 35.6437 2.42199 36.1757 1.4768 37.1216C0.531605 38.0674 0.000454737 39.3497 0 40.6869L0 43.4369C0 43.8015 0.144866 44.1513 0.402728 44.4091C0.660591 44.667 1.01033 44.8119 1.375 44.8119H18.7911C19.1558 44.8119 19.5055 44.667 19.7634 44.4091C20.0212 44.1513 20.1661 43.8015 20.1661 43.4369V40.6869C20.1656 39.3497 19.6345 38.0674 18.6893 37.1216C17.7441 36.1757 16.4622 35.6437 15.125 35.6423Z" fill="#E668B3"/>
<path d="M33.9161 31.9744C36.9536 31.9744 39.4161 29.5119 39.4161 26.4744C39.4161 23.4368 36.9536 20.9744 33.9161 20.9744C30.8785 20.9744 28.4161 23.4368 28.4161 26.4744C28.4161 29.5119 30.8785 31.9744 33.9161 31.9744Z" fill="#E668B3"/>
<path d="M38.9589 35.6423H28.875C27.5379 35.6437 26.2559 36.1757 25.3107 37.1216C24.3655 38.0674 23.8344 39.3497 23.8339 40.6869V43.4369C23.8339 43.8015 23.9788 44.1513 24.2367 44.4091C24.4945 44.667 24.8443 44.8119 25.2089 44.8119H42.625C42.9897 44.8119 43.3394 44.667 43.5973 44.4091C43.8552 44.1513 44 43.8015 44 43.4369V40.6869C43.9996 39.3497 43.4684 38.0674 42.5232 37.1216C41.578 36.1757 40.2961 35.6437 38.9589 35.6423Z" fill="#E668B3"/>
<path d="M25.74 19.4569V20.7769C25.7373 21.319 25.5194 21.8379 25.1343 22.2195C24.7491 22.6011 24.2283 22.8141 23.6861 22.8119H20.3122C19.3222 22.8119 18.2497 22.0779 18.2497 20.4469V19.4569H25.74ZM30.25 9.00685C30.253 10.2233 29.9827 11.4249 29.4592 12.5229C28.9356 13.6209 28.1721 14.5873 27.225 15.3508C26.4963 15.9175 25.9901 16.7224 25.795 17.6247H18.2188C18.0698 16.7524 17.5903 15.9712 16.8799 15.4436C15.8777 14.6654 15.0724 13.6628 14.5288 12.5164C13.9851 11.37 13.7184 10.1119 13.75 8.84357C13.8411 4.47966 17.49 0.868571 21.8711 0.811852C22.9711 0.787233 24.0646 0.985952 25.0856 1.39599C26.1065 1.80604 27.0337 2.41888 27.8111 3.19748C28.5875 3.95196 29.2037 4.85534 29.6228 5.85355C30.0418 6.85176 30.2552 7.92426 30.25 9.00685Z" fill="#F5C3E1"/>
</g>
<defs>
<clipPath id="clip0_2101_64">
<rect width="44" height="44" fill="white" transform="translate(0 0.810059)"/>
</clipPath>
</defs>
</svg>
