<svg width="36" height="37" viewBox="0 0 36 37" fill="none" xmlns="http://www.w3.org/2000/svg">
<g clip-path="url(#clip0_2101_205)">
<path d="M18 5.5433C17.7016 5.5433 17.4155 5.42477 17.2045 5.2138C16.9935 5.00282 16.875 4.71667 16.875 4.4183V1.48486C16.875 1.18649 16.9935 0.900347 17.2045 0.689368C17.4155 0.47839 17.7016 0.359863 18 0.359863C18.2984 0.359863 18.5845 0.47839 18.7955 0.689368C19.0065 0.900347 19.125 1.18649 19.125 1.48486V4.4183C19.125 4.71667 19.0065 5.00282 18.7955 5.2138C18.5845 5.42477 18.2984 5.5433 18 5.5433ZM27.8578 9.62705C27.6356 9.62695 27.4185 9.56106 27.2337 9.4377C27.0489 9.31434 26.9048 9.13903 26.8195 8.93388C26.7342 8.72872 26.7116 8.50291 26.7545 8.28491C26.7974 8.06691 26.9038 7.86649 27.0605 7.70893L29.1375 5.63189C29.2409 5.52303 29.3651 5.43597 29.5027 5.37586C29.6403 5.31574 29.7885 5.28378 29.9387 5.28185C30.0888 5.27993 30.2379 5.30809 30.377 5.36466C30.5161 5.42124 30.6424 5.50509 30.7486 5.61127C30.8548 5.71745 30.9386 5.84381 30.9952 5.98291C31.0518 6.122 31.0799 6.27102 31.078 6.42116C31.0761 6.57131 31.0441 6.71956 30.984 6.85716C30.9239 6.99476 30.8368 7.11894 30.728 7.22236L28.6509 9.29939C28.4402 9.50912 28.1551 9.62691 27.8578 9.62705ZM34.875 19.4849H31.9416C31.6432 19.4849 31.357 19.3663 31.1461 19.1554C30.9351 18.9444 30.8166 18.6582 30.8166 18.3599C30.8166 18.0615 30.9351 17.7753 31.1461 17.5644C31.357 17.3534 31.6432 17.2349 31.9416 17.2349H34.875C35.1734 17.2349 35.4595 17.3534 35.6705 17.5644C35.8815 17.7753 36 18.0615 36 18.3599C36 18.6582 35.8815 18.9444 35.6705 19.1554C35.4595 19.3663 35.1734 19.4849 34.875 19.4849ZM29.932 31.4169C29.6333 31.4166 29.3467 31.2983 29.1347 31.0878L27.0591 29.0108C26.857 28.7981 26.746 28.5149 26.7498 28.2215C26.7535 27.9282 26.8717 27.6479 27.0792 27.4404C27.2866 27.233 27.5669 27.1148 27.8603 27.111C28.1536 27.1073 28.4368 27.2183 28.6495 27.4203L30.7266 29.4974C30.9374 29.7083 31.0558 29.9944 31.0558 30.2926C31.0558 30.5908 30.9374 30.8769 30.7266 31.0878C30.6225 31.1926 30.4987 31.2757 30.3623 31.3321C30.2259 31.3886 30.0797 31.4174 29.932 31.4169ZM6.06797 31.4169C5.84563 31.4168 5.6283 31.3508 5.44343 31.2273C5.25856 31.1037 5.11445 30.9282 5.02929 30.7228C4.94412 30.5174 4.92173 30.2914 4.96493 30.0733C5.00814 29.8552 5.115 29.6548 5.27203 29.4974L7.34906 27.4203C7.56176 27.2183 7.84498 27.1073 8.13833 27.111C8.43169 27.1148 8.71197 27.233 8.91943 27.4404C9.12688 27.6479 9.24508 27.9282 9.24884 28.2215C9.25259 28.5149 9.1416 28.7981 8.93953 29.0108L6.8625 31.0878C6.75844 31.1925 6.63462 31.2755 6.49823 31.332C6.36184 31.3885 6.21559 31.4174 6.06797 31.4169ZM4.05844 19.4849H1.125C0.826631 19.4849 0.540483 19.3663 0.329505 19.1554C0.118526 18.9444 0 18.6582 0 18.3599C0 18.0615 0.118526 17.7753 0.329505 17.5644C0.540483 17.3534 0.826631 17.2349 1.125 17.2349H4.05844C4.35681 17.2349 4.64295 17.3534 4.85393 17.5644C5.06491 17.7753 5.18344 18.0615 5.18344 18.3599C5.18344 18.6582 5.06491 18.9444 4.85393 19.1554C4.64295 19.3663 4.35681 19.4849 4.05844 19.4849ZM8.14219 9.62705C7.84393 9.62766 7.55764 9.5098 7.34625 9.29939L5.26922 7.22236C5.16036 7.11894 5.0733 6.99476 5.01318 6.85716C4.95306 6.71956 4.9211 6.57131 4.91918 6.42116C4.91726 6.27102 4.94541 6.122 5.00199 5.98291C5.05856 5.84381 5.14241 5.71745 5.24859 5.61127C5.35477 5.50509 5.48113 5.42124 5.62023 5.36466C5.75933 5.30809 5.90834 5.27993 6.05849 5.28185C6.20864 5.28378 6.35688 5.31574 6.49448 5.37586C6.63209 5.43597 6.75626 5.52303 6.85969 5.63189L8.93672 7.70893C9.09318 7.86632 9.1996 8.06649 9.24257 8.28422C9.28555 8.50196 9.26316 8.72754 9.17823 8.93258C9.09329 9.13762 8.94961 9.31297 8.76526 9.43654C8.58091 9.56011 8.36412 9.6264 8.14219 9.62705Z" fill="#F5C3E1"/>
<path d="M22.5 31.86V33.7345C22.4967 34.4298 22.219 35.0957 21.7273 35.5873C21.2357 36.079 20.5698 36.3567 19.8745 36.36H16.1241C14.8584 36.36 13.5 35.3995 13.5 33.3V31.86H22.5ZM24.6094 10.2037C23.3844 9.21193 21.9526 8.50756 20.4193 8.1425C18.8861 7.77744 17.2905 7.76099 15.75 8.09436C11.7745 8.92546 8.55 12.1725 7.72453 16.1395C7.30389 18.1007 7.45324 20.1414 8.15494 22.0204C8.85663 23.8995 10.0814 25.5386 11.6845 26.744C12.5987 27.4467 13.2103 28.4718 13.3945 29.61V29.6269C13.4283 29.6146 13.4641 29.6088 13.5 29.61H22.5C22.5258 29.6076 22.5518 29.613 22.5745 29.6255V29.61C22.7841 28.4695 23.4591 27.4205 24.4941 26.6105C25.7309 25.6347 26.7326 24.3933 27.4248 22.9781C28.1171 21.5629 28.4823 20.0102 28.4934 18.4348C28.5044 16.8594 28.1611 15.3017 27.4888 13.8769C26.8165 12.4521 25.8324 11.1968 24.6094 10.2037ZM23.625 19.1137C23.3273 19.1115 23.0424 18.9923 22.8319 18.7818C22.6214 18.5713 22.5022 18.2864 22.5 17.9887C22.5007 17.4467 22.3946 16.9098 22.1876 16.4088C21.9807 15.9079 21.6769 15.4526 21.2939 15.0691C20.9108 14.6856 20.4558 14.3815 19.9551 14.174C19.4543 13.9665 18.9175 13.8598 18.3755 13.86C18.0771 13.86 17.791 13.7415 17.58 13.5305C17.369 13.3195 17.2505 13.0334 17.2505 12.735C17.2505 12.4366 17.369 12.1505 17.58 11.9395C17.791 11.7285 18.0771 11.61 18.3755 11.61C20.065 11.6137 21.6842 12.2865 22.8788 13.4811C24.0735 14.6758 24.7463 16.295 24.75 17.9845C24.7478 18.2822 24.6286 18.5671 24.4181 18.7776C24.2076 18.9881 23.9227 19.1073 23.625 19.1095V19.1137Z" fill="#E668B3"/>
<path d="M13.3945 29.6099H13.5C13.4641 29.6075 13.4282 29.6128 13.3945 29.6254V29.6099Z" fill="#F5C3E1"/>
<path d="M22.5745 29.6099V29.6254C22.5518 29.6129 22.5258 29.6076 22.5 29.6099H22.5745Z" fill="#E668B3"/>
</g>
<defs>
<clipPath id="clip0_2101_205">
<rect width="36" height="36" fill="white" transform="translate(0 0.359863)"/>
</clipPath>
</defs>
</svg>
