<svg width="44" height="45" viewBox="0 0 44 45" fill="none" xmlns="http://www.w3.org/2000/svg">
<g clip-path="url(#clip0_2101_79)">
<path d="M29.5625 4.34546L9.5889 14.56L1.64999 10.6619L21.2626 0.981864C21.4845 0.873321 21.7281 0.816895 21.9751 0.816895C22.222 0.816895 22.4657 0.873321 22.6875 0.981864L29.5625 4.34546ZM42.3276 10.6619L22.0103 20.7269L14.4014 16.98L13.3048 16.4214L33.2922 6.19999L34.3922 6.75686L42.3276 10.6619Z" fill="#B5E7D9"/>
<path d="M20.3827 23.6282L20.3603 44.8101L0.898906 34.654C0.628191 34.5094 0.40168 34.2942 0.243414 34.0312C0.0851493 33.7683 0.0010353 33.4673 0 33.1604L0 13.5632L8.25 17.6264V24.7678C8.25 25.2054 8.42384 25.6251 8.73327 25.9345C9.04271 26.2439 9.46239 26.4178 9.9 26.4178C10.3376 26.4178 10.7573 26.2439 11.0667 25.9345C11.3762 25.6251 11.55 25.2054 11.55 24.7678V19.2781L12.65 19.8143L20.3827 23.6282ZM43.9777 13.5856L23.6827 23.6076L23.6603 44.7878L44 34.1676L43.9777 13.5856Z" fill="#45C4A0"/>
</g>
<defs>
<clipPath id="clip0_2101_79">
<rect width="44" height="44" fill="white" transform="translate(0 0.810059)"/>
</clipPath>
</defs>
</svg>
