<svg width="36" height="37" viewBox="0 0 36 37" fill="none" xmlns="http://www.w3.org/2000/svg">
<g clip-path="url(#clip0_2101_212)">
<path d="M8.25047 25.8579C10.7358 25.8579 12.7505 23.8432 12.7505 21.3579C12.7505 18.8726 10.7358 16.8579 8.25047 16.8579C5.76519 16.8579 3.75047 18.8726 3.75047 21.3579C3.75047 23.8432 5.76519 25.8579 8.25047 25.8579Z" fill="#A07CC5"/>
<path d="M12.375 28.8589H4.12453C3.03049 28.86 1.98163 29.2953 1.20829 30.0692C0.43495 30.843 0.000372058 31.8922 0 32.9862L0 35.2362C0 35.5346 0.118526 35.8207 0.329505 36.0317C0.540483 36.2427 0.826631 36.3612 1.125 36.3612H15.3745C15.6729 36.3612 15.959 36.2427 16.17 36.0317C16.381 35.8207 16.4995 35.5346 16.4995 35.2362V32.9862C16.4992 31.8922 16.0646 30.843 15.2912 30.0692C14.5179 29.2953 13.469 28.86 12.375 28.8589Z" fill="#A07CC5"/>
<path d="M27.7495 25.8579C30.2348 25.8579 32.2495 23.8432 32.2495 21.3579C32.2495 18.8726 30.2348 16.8579 27.7495 16.8579C25.2642 16.8579 23.2495 18.8726 23.2495 21.3579C23.2495 23.8432 25.2642 25.8579 27.7495 25.8579Z" fill="#A07CC5"/>
<path d="M31.8755 28.8589H23.625C22.531 28.86 21.4821 29.2953 20.7088 30.0692C19.9354 30.843 19.5008 31.8922 19.5005 32.9862V35.2362C19.5005 35.5346 19.619 35.8207 19.83 36.0317C20.041 36.2427 20.3271 36.3612 20.6255 36.3612H34.875C35.1734 36.3612 35.4595 36.2427 35.6705 36.0317C35.8815 35.8207 36 35.5346 36 35.2362V32.9862C35.9996 31.8922 35.5651 30.843 34.7917 30.0692C34.0184 29.2953 32.9695 28.86 31.8755 28.8589Z" fill="#A07CC5"/>
<path d="M21.06 15.616V16.696C21.0578 17.1396 20.8795 17.5642 20.5644 17.8764C20.2493 18.1886 19.8231 18.3629 19.3795 18.361H16.6191C15.8091 18.361 14.9316 17.7606 14.9316 16.426V15.616H21.06ZM24.75 7.06604C24.7524 8.06132 24.5313 9.04444 24.1029 9.94282C23.6746 10.8412 23.0499 11.6319 22.275 12.2565C21.6788 12.7202 21.2647 13.3788 21.105 14.117H14.9062C14.7844 13.4033 14.392 12.7641 13.8108 12.3324C12.9909 11.6958 12.332 10.8754 11.8872 9.93748C11.4424 8.99952 11.2241 7.9702 11.25 6.93245C11.3245 3.36198 14.31 0.407448 17.8945 0.361042C18.7945 0.340899 19.6892 0.503488 20.5245 0.838977C21.3599 1.17447 22.1185 1.67589 22.7545 2.31292C23.3898 2.93022 23.8939 3.66935 24.2368 4.48607C24.5797 5.30278 24.7542 6.18028 24.75 7.06604Z" fill="#D9CBE8"/>
</g>
<defs>
<clipPath id="clip0_2101_212">
<rect width="36" height="36" fill="white" transform="translate(0 0.359863)"/>
</clipPath>
</defs>
</svg>
