<svg width="36" height="37" viewBox="0 0 36 37" fill="none" xmlns="http://www.w3.org/2000/svg">
<g clip-path="url(#clip0_2101_220)">
<path d="M31.2012 12.937C30.0199 12.94 28.8803 12.5011 28.0062 11.7065V17.3611H24.1812C24.5297 16.5772 24.7084 15.7285 24.7057 14.8706C24.7033 13.9368 24.4934 13.0153 24.0911 12.1726C23.6888 11.33 23.1043 10.5873 22.3797 9.99825C21.6551 9.40925 20.8087 8.98866 19.9017 8.76694C18.9946 8.54522 18.0496 8.5279 17.135 8.71624C16.2205 8.90458 15.3592 9.29386 14.6135 9.85593C13.8679 10.418 13.2565 11.1388 12.8236 11.9661C12.3907 12.7935 12.1472 13.7067 12.1106 14.6398C12.074 15.5728 12.2452 16.5023 12.6119 17.3611H7.99664V1.7517C7.9959 1.54045 8.03684 1.33113 8.11713 1.13573C8.19742 0.940332 8.31547 0.762693 8.46452 0.61299C8.61357 0.463287 8.79069 0.344462 8.98573 0.263322C9.18078 0.182181 9.38992 0.14032 9.60117 0.140137L26.4016 0.140137C26.8271 0.140509 27.235 0.309677 27.5358 0.610504C27.8366 0.911332 28.0058 1.31923 28.0062 1.74467V4.5642C28.5859 4.04678 29.2826 3.67798 30.0364 3.48954C30.7902 3.3011 31.5786 3.29866 32.3335 3.48244C33.0885 3.66622 33.7875 4.03071 34.3704 4.54453C34.9533 5.05836 35.4026 5.70613 35.6796 6.43209C35.9566 7.15805 36.0531 7.94045 35.9606 8.71196C35.8682 9.48346 35.5898 10.221 35.1491 10.861C34.7085 11.501 34.119 12.0243 33.4312 12.386C32.7435 12.7476 31.9782 12.9367 31.2012 12.937Z" fill="#FCD1C9"/>
<path d="M20.082 25.6283C19.9473 26.3235 19.9681 27.0399 20.143 27.7261C20.3179 28.4123 20.6424 29.0514 21.0934 29.5973C21.5444 30.1433 22.1106 30.5828 22.7514 30.8841C23.3922 31.1855 24.0918 31.3413 24.7999 31.3405C25.983 31.3436 27.1243 30.9036 27.9991 30.1072V34.5397C27.998 34.9635 27.8293 35.3697 27.5297 35.6695C27.2301 35.9694 26.8241 36.1385 26.4002 36.14H9.60399C9.1799 36.1389 8.7735 35.9699 8.47362 35.67C8.17375 35.3702 8.00479 34.9638 8.00367 34.5397V30.1072C7.42456 30.6275 6.72752 30.9991 5.97273 31.1899C5.21793 31.3807 4.42804 31.385 3.67122 31.2023C2.91441 31.0197 2.21341 30.6556 1.62871 30.1416C1.04402 29.6275 0.593193 28.9789 0.315147 28.2517C0.037101 27.5245 -0.0598149 26.7406 0.0327633 25.9675C0.125341 25.1945 0.404633 24.4556 0.846534 23.8147C1.28843 23.1737 1.87967 22.6499 2.56922 22.2884C3.25877 21.927 4.02592 21.7387 4.80446 21.74C5.98738 21.7375 7.1285 22.1774 8.00367 22.9733V18.867H15.7521C14.8938 18.2968 14.2418 17.4654 13.8927 16.4959C13.5436 15.5264 13.5159 14.4702 13.8137 13.4837C14.1115 12.4972 14.719 11.6328 15.5463 11.0184C16.3736 10.404 17.3766 10.0723 18.4071 10.0723C19.4376 10.0723 20.4407 10.404 21.2679 11.0184C22.0952 11.6328 22.7027 12.4972 23.0005 13.4837C23.2983 14.4702 23.2706 15.5264 22.9215 16.4959C22.5724 17.4654 21.9204 18.2968 21.0621 18.867H28.0048V22.9733C27.3737 22.4044 26.6028 22.0135 25.771 21.8406C24.9392 21.6676 24.0764 21.7189 23.2709 21.989C22.4654 22.2591 21.7462 22.7384 21.1868 23.3779C20.6275 24.0174 20.2481 24.794 20.0876 25.6283H20.082Z" fill="#F78B77"/>
</g>
<defs>
<clipPath id="clip0_2101_220">
<rect width="36" height="36" fill="white" transform="translate(0 0.140137)"/>
</clipPath>
</defs>
</svg>
