<svg width="44" height="45" viewBox="0 0 44 45" fill="none" xmlns="http://www.w3.org/2000/svg">
<g clip-path="url(#clip0_2101_116)">
<path d="M22.0017 10.1478C24.5333 10.1478 26.5856 8.09551 26.5856 5.56389C26.5856 3.03227 24.5333 0.97998 22.0017 0.97998C19.4701 0.97998 17.4178 3.03227 17.4178 5.56389C17.4178 8.09551 19.4701 10.1478 22.0017 10.1478Z" fill="#A07CC5"/>
<path d="M34.8356 35.8138C37.3672 35.8138 39.4195 33.7615 39.4195 31.2299C39.4195 28.6983 37.3672 26.646 34.8356 26.646C32.304 26.646 30.2517 28.6983 30.2517 31.2299C30.2517 33.7615 32.304 35.8138 34.8356 35.8138Z" fill="#A07CC5"/>
<path d="M9.1678 35.8138C11.6994 35.8138 13.7517 33.7615 13.7517 31.2299C13.7517 28.6983 11.6994 26.646 9.1678 26.646C6.63618 26.646 4.58389 28.6983 4.58389 31.2299C4.58389 33.7615 6.63618 35.8138 9.1678 35.8138Z" fill="#A07CC5"/>
<path d="M29.7928 19.3139H14.2089C13.8442 19.3139 13.4945 19.169 13.2366 18.9112C12.9788 18.6533 12.8339 18.3036 12.8339 17.9389V17.0228C12.8344 15.6855 13.3658 14.4031 14.3114 13.4575C15.257 12.5119 16.5394 11.9804 17.8767 11.98H26.1267C27.4631 11.9809 28.7445 12.5121 29.6897 13.4569C30.6348 14.4017 31.1664 15.683 31.1678 17.0194V17.9354C31.1683 18.1163 31.133 18.2955 31.0641 18.4627C30.9952 18.6299 30.894 18.7819 30.7663 18.9099C30.6386 19.038 30.4868 19.1396 30.3198 19.2089C30.1527 19.2782 29.9737 19.3139 29.7928 19.3139ZM42.6267 44.98H27.0428C26.6781 44.98 26.3284 44.8351 26.0705 44.5773C25.8127 44.3194 25.6678 43.9697 25.6678 43.605V42.6889C25.6692 41.3523 26.2007 40.0709 27.1458 39.1258C28.0909 38.1807 29.3723 37.6492 30.7089 37.6478H38.9589C40.2958 37.6487 41.5776 38.1801 42.5231 39.1252C43.4686 40.0703 44.0003 41.352 44.0017 42.6889V43.605C44.0017 43.9697 43.8568 44.3194 43.599 44.5773C43.3411 44.8351 42.9914 44.98 42.6267 44.98ZM16.9606 44.98H1.37671C1.01204 44.98 0.6623 44.8351 0.404437 44.5773C0.146575 44.3194 0.00170898 43.9697 0.00170898 43.605V42.6889C0.00307399 41.3523 0.534626 40.0709 1.47972 39.1258C2.42481 38.1807 3.70624 37.6492 5.0428 37.6478H13.2928C14.6292 37.6496 15.9104 38.1813 16.8554 39.1263C17.8004 40.0713 18.3321 41.3525 18.3339 42.6889V43.605C18.3339 43.9697 18.189 44.3194 17.9312 44.5773C17.6733 44.8351 17.3236 44.98 16.9589 44.98H16.9606Z" fill="#A07CC5"/>
<path d="M5.04282 24.3772C4.67814 24.3772 4.32841 24.2324 4.07054 23.9745C3.81268 23.7166 3.66782 23.3669 3.66782 23.0022C3.67582 19.5088 4.67772 16.0899 6.55646 13.1447C8.4352 10.1995 11.1132 7.84974 14.2777 6.36987C14.4421 6.28843 14.6212 6.24073 14.8044 6.22959C14.9876 6.21845 15.1712 6.24409 15.3443 6.305C15.5174 6.36592 15.6766 6.46087 15.8124 6.58427C15.9483 6.70767 16.058 6.85702 16.1352 7.0235C16.2125 7.18999 16.2556 7.37025 16.262 7.55366C16.2685 7.73707 16.2382 7.91992 16.1728 8.09142C16.1075 8.26293 16.0085 8.41963 15.8817 8.55227C15.7549 8.68492 15.6028 8.79084 15.4344 8.86378C12.7437 10.1209 10.4665 12.1181 8.86922 14.6219C7.2719 17.1256 6.42043 20.0324 6.41438 23.0022C6.41438 23.3663 6.26999 23.7155 6.01287 23.9733C5.75575 24.231 5.40689 24.3763 5.04282 24.3772ZM38.9606 24.3772C38.596 24.3772 38.2462 24.2324 37.9884 23.9745C37.7305 23.7166 37.5856 23.3669 37.5856 23.0022C37.5796 20.0324 36.7281 17.1256 35.1308 14.6219C33.5335 12.1181 31.2563 10.1209 28.5656 8.86378C28.3998 8.78902 28.2505 8.68212 28.1263 8.54925C28.0021 8.41639 27.9055 8.26021 27.8421 8.08976C27.7787 7.9193 27.7498 7.73796 27.7569 7.55624C27.7641 7.37451 27.8072 7.19601 27.8838 7.03107C27.9604 6.86612 28.069 6.71802 28.2033 6.59533C28.3375 6.47264 28.4948 6.3778 28.6659 6.31631C28.8371 6.25481 29.0187 6.22788 29.2004 6.23708C29.382 6.24627 29.56 6.29141 29.7241 6.36987C32.8886 7.84957 35.5668 10.1993 37.4455 13.1445C39.3243 16.0897 40.3261 19.5088 40.3339 23.0022C40.3339 23.3669 40.189 23.7166 39.9312 23.9745C39.6733 24.2324 39.3236 24.3772 38.9589 24.3772H38.9606ZM22.0017 41.3361C21.3616 41.3369 20.7219 41.3036 20.0853 41.2364C19.7342 41.1851 19.4165 41 19.1987 40.7198C18.9809 40.4396 18.8799 40.0861 18.9167 39.7331C18.9536 39.3802 19.1255 39.0552 19.3964 38.826C19.6674 38.5969 20.0165 38.4813 20.3706 38.5036C21.4908 38.6179 22.6199 38.6145 23.7394 38.4933C24.098 38.4605 24.4552 38.5697 24.7342 38.7975C25.0132 39.0252 25.1917 39.3534 25.2313 39.7113C25.2709 40.0693 25.1685 40.4285 24.9461 40.7118C24.7237 40.995 24.399 41.1797 24.0419 41.2261C23.3643 41.2993 22.6833 41.336 22.0017 41.3361Z" fill="#D9CBE8"/>
</g>
<defs>
<clipPath id="clip0_2101_116">
<rect width="44" height="44" fill="white" transform="translate(0 0.97998)"/>
</clipPath>
</defs>
</svg>
