<svg width="34" height="18" viewBox="0 0 34 18" fill="none" xmlns="http://www.w3.org/2000/svg">
<g clip-path="url(#clip0_2101_243)">
<path d="M12.0364 -19.7038L13.9624 -25.4278L9.31835 -28.5418H15.0064L17.0404 -34.6798L19.1104 -28.5418H24.7624L20.1184 -25.4278L22.0804 -19.7038L17.0404 -23.3578L12.0364 -19.7038ZM12.0364 -1.70377L13.9624 -7.42777L9.31835 -10.5418H15.0064L17.0404 -16.6798L19.1104 -10.5418H24.7624L20.1184 -7.42777L22.0804 -1.70377L17.0404 -5.35777L12.0364 -1.70377ZM12.0364 16.2962L13.9624 10.5722L9.31835 7.45823H15.0064L17.0404 1.32023L19.1104 7.45823H24.7624L20.1184 10.5722L22.0804 16.2962L17.0404 12.6422L12.0364 16.2962ZM12.0364 34.2962L13.9624 28.5722L9.31835 25.4582H15.0064L17.0404 19.3202L19.1104 25.4582H24.7624L20.1184 28.5722L22.0804 34.2962L17.0404 30.6422L12.0364 34.2962ZM12.0364 52.2962L13.9624 46.5722L9.31835 43.4582H15.0064L17.0404 37.3202L19.1104 43.4582H24.7624L20.1184 46.5722L22.0804 52.2962L17.0404 48.6422L12.0364 52.2962Z" fill="#FCC032"/>
</g>
<defs>
<clipPath id="clip0_2101_243">
<rect width="32.88" height="18" fill="white" transform="translate(0.5 -0.00976562)"/>
</clipPath>
</defs>
</svg>
