<svg width="36" height="37" viewBox="0 0 36 37" fill="none" xmlns="http://www.w3.org/2000/svg">
<g clip-path="url(#clip0_2101_225)">
<path d="M5.02313 13.9544C5.02313 10.5127 6.39033 7.21201 8.82397 4.77838C11.2576 2.34474 14.5583 0.977539 18 0.977539C21.4417 0.977539 24.7424 2.34474 27.176 4.77838C29.6097 7.21201 30.9769 10.5127 30.9769 13.9544V20.6524C30.9769 20.9854 30.8446 21.3048 30.6091 21.5404C30.3736 21.7759 30.0542 21.9082 29.7211 21.9082C29.388 21.9082 29.0686 21.7759 28.8331 21.5404C28.5976 21.3048 28.4653 20.9854 28.4653 20.6524V13.9544C28.4653 11.1788 27.3627 8.51695 25.4001 6.55432C23.4375 4.59169 20.7756 3.4891 18 3.4891C15.2244 3.4891 12.5625 4.59169 10.5999 6.55432C8.63729 8.51695 7.53469 11.1788 7.53469 13.9544V20.6524C7.53469 20.9854 7.40239 21.3048 7.16688 21.5404C6.93138 21.7759 6.61197 21.9082 6.27891 21.9082C5.94586 21.9082 5.62645 21.7759 5.39094 21.5404C5.15544 21.3048 5.02313 20.9854 5.02313 20.6524V13.9544ZM29.7211 22.7449C30.0542 22.7449 30.3736 22.8772 30.6091 23.1127C30.8446 23.3482 30.9769 23.6676 30.9769 24.0007V29.0238C30.9769 30.2452 30.4917 31.4167 29.628 32.2803C28.7643 33.144 27.5929 33.6293 26.3714 33.6293H21.3483C21.0223 33.6184 20.7134 33.4812 20.4866 33.2467C20.2599 33.0123 20.1331 32.6989 20.1331 32.3728C20.1331 32.0466 20.2599 31.7332 20.4866 31.4988C20.7134 31.2644 21.0223 31.1272 21.3483 31.1163H26.3714C26.6463 31.1165 26.9186 31.0625 27.1726 30.9574C27.4266 30.8523 27.6575 30.6982 27.8519 30.5039C28.0464 30.3096 28.2007 30.0788 28.3059 29.8249C28.4111 29.5709 28.4653 29.2987 28.4653 29.0238V24.0007C28.4653 23.8358 28.4978 23.6725 28.5609 23.5201C28.624 23.3677 28.7165 23.2293 28.8331 23.1127C28.9497 22.9961 29.0882 22.9036 29.2405 22.8405C29.3929 22.7774 29.5562 22.7449 29.7211 22.7449Z" fill="#B5E7D9"/>
<path d="M15.0694 32.3735C15.0694 31.5962 15.3781 30.8508 15.9277 30.3012C16.4773 29.7516 17.2228 29.4429 18 29.4429H19.6749C20.4408 29.4597 21.1697 29.7757 21.7055 30.3234C22.2413 30.871 22.5413 31.6067 22.5413 32.3728C22.5413 33.1389 22.2413 33.8746 21.7055 34.4222C21.1697 34.9699 20.4408 35.2859 19.6749 35.3027H18C17.223 35.3027 16.4778 34.9941 15.9282 34.4449C15.3787 33.8956 15.0698 33.1505 15.0694 32.3735ZM18 31.9516C17.9405 31.9439 17.8801 31.9489 17.8227 31.9664C17.7653 31.9839 17.7123 32.0134 17.6672 32.053C17.6222 32.0926 17.586 32.1414 17.5613 32.196C17.5366 32.2507 17.5238 32.31 17.5238 32.37C17.5238 32.43 17.5366 32.4893 17.5613 32.5439C17.586 32.5986 17.6222 32.6473 17.6672 32.6869C17.7123 32.7265 17.7653 32.756 17.8227 32.7735C17.8801 32.791 17.9405 32.7961 18 32.7883H19.6749C19.7765 32.7751 19.8698 32.7254 19.9374 32.6484C20.0051 32.5714 20.0424 32.4725 20.0424 32.37C20.0424 32.2675 20.0051 32.1685 19.9374 32.0915C19.8698 32.0146 19.7765 31.9648 19.6749 31.9516H18Z" fill="#B5E7D9"/>
<path d="M4.60406 16.0469C3.99933 16.0469 3.40052 16.166 2.84184 16.3975C2.28316 16.6289 1.77555 16.9682 1.348 17.3959C0.920457 17.8235 0.581353 18.3313 0.35006 18.89C0.118767 19.4488 -0.000184493 20.0476 2.1478e-07 20.6523V24.0006C1.57851e-07 25.2218 0.485025 26.393 1.34841 27.2567C2.2118 28.1203 3.38286 28.6057 4.60406 28.6061H6.27891C6.44394 28.6061 6.60735 28.5736 6.7598 28.5104C6.91225 28.4472 7.05075 28.3545 7.16738 28.2378C7.284 28.121 7.37647 27.9824 7.4395 27.8299C7.50253 27.6774 7.53487 27.5139 7.53469 27.3489V17.3027C7.53469 17.1377 7.50221 16.9744 7.4391 16.8221C7.37599 16.6697 7.28349 16.5313 7.16688 16.4147C7.05027 16.2981 6.91183 16.2056 6.75947 16.1425C6.60711 16.0794 6.44382 16.0469 6.27891 16.0469H4.60406ZM31.3959 16.0469C32.0007 16.0469 32.5995 16.166 33.1582 16.3975C33.7168 16.6289 34.2245 16.9682 34.652 17.3959C35.0795 17.8235 35.4186 18.3313 35.6499 18.89C35.8812 19.4488 36.0002 20.0476 36 20.6523V24.0006C36 25.2218 35.515 26.393 34.6516 27.2567C33.7882 28.1203 32.6171 28.6057 31.3959 28.6061H29.7211C29.5561 28.6061 29.3927 28.5736 29.2402 28.5104C29.0878 28.4472 28.9493 28.3545 28.8326 28.2378C28.716 28.121 28.6235 27.9824 28.5605 27.8299C28.4975 27.6774 28.4651 27.5139 28.4653 27.3489V17.3027C28.4653 17.1377 28.4978 16.9744 28.5609 16.8221C28.624 16.6697 28.7165 16.5313 28.8331 16.4147C28.9497 16.2981 29.0882 16.2056 29.2405 16.1425C29.3929 16.0794 29.5562 16.0469 29.7211 16.0469H31.3959Z" fill="#45C4A0"/>
</g>
<defs>
<clipPath id="clip0_2101_225">
<rect width="36" height="36" fill="white" transform="translate(0 0.140137)"/>
</clipPath>
</defs>
</svg>
