<svg width="20" height="21" viewBox="0 0 20 21" fill="none" xmlns="http://www.w3.org/2000/svg">
<rect y="0.530029" width="20" height="20" rx="10" fill="#FBE4F1"/>
<path d="M11.4453 6.54565C11.3672 6.46753 11.2793 6.40568 11.1816 6.36011C11.084 6.31453 10.9766 6.29175 10.8594 6.29175C10.7422 6.29175 10.6348 6.31453 10.5371 6.36011C10.4395 6.40568 10.3516 6.46753 10.2734 6.54565L4.0625 12.7566L1.44531 10.1394C1.36719 10.0613 1.2793 10.0027 1.18164 9.96362C1.08398 9.92456 0.976562 9.90503 0.859375 9.90503C0.625 9.90503 0.423177 9.98641 0.253906 10.1492C0.0846354 10.3119 0 10.5105 0 10.7449C0 10.8751 0.0260417 10.9923 0.078125 11.0964C0.130208 11.2006 0.195312 11.2917 0.273438 11.3699L3.47656 14.573C3.54167 14.6381 3.6263 14.6934 3.73047 14.739C3.83464 14.7846 3.94531 14.8074 4.0625 14.8074C4.17969 14.8074 4.28711 14.7846 4.38477 14.739C4.48242 14.6934 4.57031 14.6381 4.64844 14.573L11.4453 7.75659C11.5365 7.67847 11.6048 7.58732 11.6504 7.48315C11.696 7.37899 11.7188 7.26831 11.7188 7.15112C11.7188 7.03394 11.696 6.92 11.6504 6.80933C11.6048 6.69865 11.5365 6.61076 11.4453 6.54565Z" fill="#E668B3"/>
</svg>
